<?xml version="1.0" encoding="UTF-8"?> <svg xmlns="http://www.w3.org/2000/svg" width="25" height="24" viewBox="0 0 25 24" fill="none"><path fill-rule="evenodd" clip-rule="evenodd" d="M12.5001 2.95496C7.50466 2.95496 3.45508 7.00454 3.45508 12C3.45508 16.9954 7.50466 21.045 12.5001 21.045C17.4955 21.045 21.5451 16.9954 21.5451 12C21.5451 7.00454 17.4955 2.95496 12.5001 2.95496ZM1.95508 12C1.95508 6.17611 6.67624 1.45496 12.5001 1.45496C18.3239 1.45496 23.0451 6.17611 23.0451 12C23.0451 17.8238 18.3239 22.545 12.5001 22.545C6.67624 22.545 1.95508 17.8238 1.95508 12Z" fill="#FF6116"></path><path fill-rule="evenodd" clip-rule="evenodd" d="M17.0697 7.14739C17.4301 7.35155 17.5568 7.80922 17.3526 8.16962L12.943 15.954C12.6615 16.4516 12.1707 16.8739 11.533 16.9319C10.8872 16.9906 10.3461 16.658 9.99443 16.2185L9.98165 16.2025L7.70187 13.1873C7.45203 12.857 7.51732 12.3866 7.8477 12.1367C8.17808 11.8869 8.64845 11.9522 8.89829 12.2826L11.1711 15.2881C11.2319 15.3625 11.2867 15.4016 11.3242 15.4204C11.3598 15.4382 11.3821 15.4394 11.3972 15.438C11.4191 15.436 11.5286 15.4081 11.6372 15.2159L16.0475 7.43029C16.2517 7.06989 16.7093 6.94323 17.0697 7.14739Z" fill="#FF6116"></path></svg> 